<svg version="1.1" viewBox="0 0 3183 3072" xmlns="http://www.w3.org/2000/svg"><g id="Layer_x0020_1"><path fill="#7974f4" d="M2600 224c0,0 0,0 0,0 236,198 259,562 52,809 -254,303 -1849,2089 -2221,1776 -301,-190 917,-1964 1363,-2496 207,-247 570,-287 806,-89z"></path><path fill="#7974f4" d="M3166 2190c0,0 0,0 0,0 64,210 -58,443 -270,516 -260,90 -1848,585 -1948,252 -104,-230 1262,-860 1718,-1018 212,-73 437,39 500,250z"></path><path fill="#7974f4" d="M566 3c0,0 0,0 0,0 -219,-26 -427,134 -462,356 -44,271 -255,1921 90,1962 245,62 628,-1392 704,-1869 36,-221 -114,-424 -332,-449z"></path></g></svg>